<?xml version="1.0" encoding="UTF-8" standalone="no"?>
<!-- Created with Inkscape (http://www.inkscape.org/) -->

<svg
   width="64"
   height="48"
   viewBox="0 0 64 48"
   version="1.1"
   id="SVGRoot"
   xmlns="http://www.w3.org/2000/svg"
   xmlns:svg="http://www.w3.org/2000/svg">
  <defs
     id="defs1775" />
  <g
     id="layer1">
    <path
       id="rect1548-9"
       style="fill:#ffffff;fill-opacity:1;stroke:none;stroke-width:0.641792;stop-color:#000000"
       d="M 2.8578107,0.36249825 C 0.22175246,-1.1472801 -1.2050296,2.3751178 1.3154389,5.1083944 3.8359074,7.8416711 23.181398,23.754547 26.211299,26.251226 c 3.0299,2.496679 5.230397,4.337932 6.1776,4.06243 0.947203,-0.275502 5.485892,-4.07237 8.498835,-6.561926 C 43.900678,21.262175 60.787328,7.3555655 62.9588,4.8981383 65.130271,2.4407112 63.683817,-1.1323336 60.662202,0.68524447 57.640587,2.5028225 37.601378,19.005487 34.784496,21.328864 c -2.816882,2.323376 -2.810283,2.338127 -2.811127,2.339595 -8.43e-4,0.0015 -0.01532,0.0015 -0.01687,-7.96e-4 -0.0015,-0.0023 0.0063,-0.02029 -0.377911,-0.337913 C 31.194336,23.01213 28.449334,20.769964 25.628549,18.449738 22.807765,16.129512 5.493869,1.8722766 2.8578107,0.36249825 Z" />
    <path
       id="rect1548-9-0"
       style="fill:#ffffff;fill-opacity:1;stroke:none;stroke-width:0.641792;stop-color:#000000"
       d="m 2.8578099,18.021529 c -2.63605703,-1.509778 -4.0628396,2.012622 -1.5423713,4.745898 2.5204683,2.733277 21.8659584,18.646152 24.8958584,21.142831 3.029901,2.496679 5.230398,4.337933 6.177602,4.06243 0.947203,-0.275502 5.485892,-4.07237 8.498835,-6.561925 3.012943,-2.489555 19.899594,-16.396166 22.071065,-18.853593 2.171471,-2.457427 0.725017,-6.030472 -2.296597,-4.212894 -3.021615,1.817578 -23.060824,18.320243 -25.877706,20.643619 -2.816882,2.323377 -2.810283,2.338128 -2.811127,2.339596 -8.43e-4,0.0015 -0.01532,0.0015 -0.01687,-7.98e-4 -0.0015,-0.0023 0.0063,-0.02029 -0.377916,-0.337916 C 31.194328,40.671154 28.449323,38.428988 25.628542,36.108765 22.807762,33.788542 5.4938669,19.531307 2.8578099,18.021529 Z" />
  </g>
</svg>
